{
  "accessors": [
    {
      "bufferView": 2,
      "componentType": 5126,
      "count": 13097,
      "max": [
        6.2964959144592285,
        12.750508308410645,
        73.3615951538086
      ],
      "min": [
        -6.296497344970703,
        0.1575150489807129,
        12.716980934143066
      ],
      "type": "VEC3"
    },
    {
      "bufferView": 2,
      "byteOffset": 157164,
      "componentType": 5126,
      "count": 13097,
      "max": [
        1.0,
        1.0,
        1.0
      ],
      "min": [
        -1.0,
        -1.0,
        -1.0
      ],
      "type": "VEC3"
    },
    {
      "bufferView": 1,
      "componentType": 5126,
      "count": 13097,
      "max": [
        0.9952144622802734,
        0.9951907992362976
      ],
      "min": [
        0.004778008442372084,
        0.00477926479652524
      ],
      "type": "VEC2"
    },
    {
      "bufferView": 0,
      "componentType": 5125,
      "count": 37911,
      "type": "SCALAR"
    },
    {
      "bufferView": 2,
      "byteOffset": 314328,
      "componentType": 5126,
      "count": 231,
      "max": [
        3.8855783939361572,
        10.33958911895752,
        68.20950317382813
      ],
      "min": [
        -3.8855767250061035,
        2.568434238433838,
        62.850215911865234
      ],
      "type": "VEC3"
    },
    {
      "bufferView": 2,
      "byteOffset": 317100,
      "componentType": 5126,
      "count": 231,
      "max": [
        1.0,
        1.0,
        0.09897732734680176
      ],
      "min": [
        -1.0,
        -1.0,
        -0.19112209975719452
      ],
      "type": "VEC3"
    },
    {
      "bufferView": 1,
      "byteOffset": 104776,
      "componentType": 5126,
      "count": 231,
      "max": [
        2.452942371368408,
        0.9792925119400024
      ],
      "min": [
        -1.389441967010498,
        0.022260606288909912
      ],
      "type": "VEC2"
    },
    {
      "bufferView": 0,
      "byteOffset": 151644,
      "componentType": 5125,
      "count": 1152,
      "type": "SCALAR"
    },
    {
      "bufferView": 2,
      "byteOffset": 319872,
      "componentType": 5126,
      "count": 1840,
      "max": [
        13.064048767089844,
        19.518064498901367,
        14.540712356567383
      ],
      "min": [
        -13.064051628112793,
        -6.610039234161377,
        -0.6033827066421509
      ],
      "type": "VEC3"
    },
    {
      "bufferView": 2,
      "byteOffset": 341952,
      "componentType": 5126,
      "count": 1840,
      "max": [
        1.0,
        1.0,
        0.999626636505127
      ],
      "min": [
        -1.0,
        -1.0,
        -1.0
      ],
      "type": "VEC3"
    },
    {
      "bufferView": 1,
      "byteOffset": 106624,
      "componentType": 5126,
      "count": 1840,
      "max": [
        0.9943498373031616,
        0.9974461197853088
      ],
      "min": [
        0.0024798207450658083,
        0.002477375790476799
      ],
      "type": "VEC2"
    },
    {
      "bufferView": 0,
      "byteOffset": 156252,
      "componentType": 5125,
      "count": 4212,
      "type": "SCALAR"
    },
    {
      "bufferView": 2,
      "byteOffset": 364032,
      "componentType": 5126,
      "count": 4247,
      "max": [
        28.61640739440918,
        24.959667205810547,
        10.544577598571777
      ],
      "min": [
        -56.6628532409668,
        -16.401599884033203,
        -0.30333060026168823
      ],
      "type": "VEC3"
    },
    {
      "bufferView": 2,
      "byteOffset": 414996,
      "componentType": 5126,
      "count": 4247,
      "max": [
        0.9998177289962769,
        0.9998759627342224,
        0.999880313873291
      ],
      "min": [
        -0.9999880194664001,
        -0.9999740719795227,
        -0.9999960660934448
      ],
      "type": "VEC3"
    },
    {
      "bufferView": 1,
      "byteOffset": 121344,
      "componentType": 5126,
      "count": 4247,
      "max": [
        0.9957281947135925,
        0.995715320110321
      ],
      "min": [
        0.004096180200576782,
        0.004094898700714111
      ],
      "type": "VEC2"
    },
    {
      "bufferView": 0,
      "byteOffset": 173100,
      "componentType": 5125,
      "count": 9258,
      "type": "SCALAR"
    }
  ],
  "asset": {
    "extras": {
      "author": "DoobiDooba (https://sketchfab.com/DoobiDooba)",
      "license": "CC-BY-4.0 (http://creativecommons.org/licenses/by/4.0/)",
      "source": "https://sketchfab.com/3d-models/lighthouse-0c58bdf80b5b4f1cb858dd12fad416c3",
      "title": "LightHouse"
    },
    "generator": "Sketchfab-12.68.0",
    "version": "2.0"
  },
  "bufferViews": [
    {
      "buffer": 0,
      "byteLength": 210132,
      "name": "floatBufferViews",
      "target": 34963
    },
    {
      "buffer": 0,
      "byteLength": 155320,
      "byteOffset": 210132,
      "byteStride": 8,
      "name": "floatBufferViews",
      "target": 34962
    },
    {
      "buffer": 0,
      "byteLength": 465960,
      "byteOffset": 365452,
      "byteStride": 12,
      "name": "floatBufferViews",
      "target": 34962
    }
  ],
  "buffers": [
    {
      "byteLength": 831412,
      "uri": "scene.bin"
    }
  ],
  "images": [
    {
      "uri": "textures/Lighthouse_baseColor.png"
    },
    {
      "uri": "textures/Glass_baseColor.png"
    },
    {
      "uri": "textures/Bottom_baseColor.png"
    },
    {
      "uri": "textures/Rock_baseColor.png"
    }
  ],
  "materials": [
    {
      "doubleSided": true,
      "name": "Lighthouse",
      "pbrMetallicRoughness": {
        "baseColorTexture": {
          "index": 0
        },
        "metallicFactor": 0.5721889848744183,
        "roughnessFactor": 0.8344581789133483
      }
    },
    {
      "alphaMode": "BLEND",
      "doubleSided": true,
      "name": "Glass",
      "pbrMetallicRoughness": {
        "baseColorFactor": [
          0.8,
          0.8,
          0.8,
          1.0
        ],
        "baseColorTexture": {
          "index": 1
        },
        "metallicFactor": 0.0,
        "roughnessFactor": 0.7470177871865296
      }
    },
    {
      "doubleSided": true,
      "name": "Bottom",
      "pbrMetallicRoughness": {
        "baseColorTexture": {
          "index": 2
        },
        "metallicFactor": 0.0
      }
    },
    {
      "doubleSided": true,
      "name": "Rock",
      "pbrMetallicRoughness": {
        "baseColorTexture": {
          "index": 3
        },
        "metallicFactor": 0.5479115422602233,
        "roughnessFactor": 0.694862883881727
      }
    }
  ],
  "meshes": [
    {
      "name": "Lighthouse_Lighthouse_0",
      "primitives": [
        {
          "attributes": {
            "NORMAL": 1,
            "POSITION": 0,
            "TEXCOORD_0": 2
          },
          "indices": 3,
          "material": 0,
          "mode": 4
        }
      ]
    },
    {
      "name": "Lighthouse_Glass_0",
      "primitives": [
        {
          "attributes": {
            "NORMAL": 5,
            "POSITION": 4,
            "TEXCOORD_0": 6
          },
          "indices": 7,
          "material": 1,
          "mode": 4
        }
      ]
    },
    {
      "name": "Lighthouse_Bottom_0",
      "primitives": [
        {
          "attributes": {
            "NORMAL": 9,
            "POSITION": 8,
            "TEXCOORD_0": 10
          },
          "indices": 11,
          "material": 2,
          "mode": 4
        }
      ]
    },
    {
      "name": "Lighthouse_Rock_0",
      "primitives": [
        {
          "attributes": {
            "NORMAL": 13,
            "POSITION": 12,
            "TEXCOORD_0": 14
          },
          "indices": 15,
          "material": 3,
          "mode": 4
        }
      ]
    }
  ],
  "nodes": [
    {
      "children": [
        1
      ],
      "matrix": [
        1.0,
        0.0,
        0.0,
        0.0,
        0.0,
        2.220446049250313e-16,
        -1.0,
        0.0,
        0.0,
        1.0,
        2.220446049250313e-16,
        0.0,
        0.0,
        0.0,
        0.0,
        1.0
      ],
      "name": "Sketchfab_model"
    },
    {
      "children": [
        2
      ],
      "matrix": [
        0.009999999776482582,
        0.0,
        0.0,
        0.0,
        0.0,
        0.0,
        0.009999999776482582,
        0.0,
        0.0,
        -0.009999999776482582,
        0.0,
        0.0,
        0.0,
        0.0,
        0.0,
        1.0
      ],
      "name": "LightHouse.fbx"
    },
    {
      "children": [
        3
      ],
      "name": "RootNode"
    },
    {
      "children": [
        4,
        5,
        6,
        7
      ],
      "matrix": [
        100.0,
        0.0,
        0.0,
        0.0,
        0.0,
        -1.629206793918314e-05,
        -99.99999999999868,
        0.0,
        0.0,
        99.99999999999868,
        -1.629206793918314e-05,
        0.0,
        0.0,
        0.0,
        0.0,
        1.0
      ],
      "name": "Lighthouse"
    },
    {
      "mesh": 0,
      "name": "Lighthouse_Lighthouse_0"
    },
    {
      "mesh": 1,
      "name": "Lighthouse_Glass_0"
    },
    {
      "mesh": 2,
      "name": "Lighthouse_Bottom_0"
    },
    {
      "mesh": 3,
      "name": "Lighthouse_Rock_0"
    }
  ],
  "samplers": [
    {
      "magFilter": 9729,
      "minFilter": 9987,
      "wrapS": 10497,
      "wrapT": 10497
    }
  ],
  "scene": 0,
  "scenes": [
    {
      "name": "Sketchfab_Scene",
      "nodes": [
        0
      ]
    }
  ],
  "textures": [
    {
      "sampler": 0,
      "source": 0
    },
    {
      "sampler": 0,
      "source": 1
    },
    {
      "sampler": 0,
      "source": 2
    },
    {
      "sampler": 0,
      "source": 3
    }
  ]
}
